<svg xmlns="http://www.w3.org/2000/svg" viewBox="0 0 512 512"><g fill="#6ac259"><path d="M256.001 512c-32.627 0-59.08-26.453-59.08-59.08V59.077C196.921 26.45 223.374 0 256.001 0s59.077 26.45 59.077 59.077V452.92c0 32.628-26.45 59.08-59.077 59.08z"/><path d="M452.924 315.075c-15.119 0-30.241-5.765-41.769-17.301L256.004 142.628 100.852 297.774c-23.068 23.073-60.477 23.073-83.546 0-23.073-23.073-23.073-60.477 0-83.551l196.92-196.918c23.068-23.073 60.477-23.073 83.543 0l196.925 196.92c23.071 23.073 23.071 60.477 0 83.551-11.537 11.533-26.656 17.299-41.77 17.299z"/></g></svg>